<svg width="1440" height="1024" viewBox="0 0 1440 1024" fill="none" xmlns="http://www.w3.org/2000/svg">
<circle cx="720" cy="545" r="433" fill="white"/>
<path d="M798 825L719 551" stroke="#36476F" stroke-width="93.5" stroke-linecap="round"/>
<path d="M766.521 856.621L766.516 856.617C762.328 852.443 759.006 847.484 756.738 842.024C754.471 836.563 753.304 830.709 753.304 824.797C753.304 818.885 754.471 813.03 756.738 807.57C759.006 802.11 762.328 797.151 766.516 792.977L766.539 792.955L766.561 792.931L952.113 595.458L955.204 592.168L950.69 592.167L717.875 592.128C705.961 592.128 694.535 587.395 686.11 578.971C677.686 570.546 672.953 559.12 672.953 547.206C672.953 535.292 677.686 523.866 686.11 515.442C694.535 507.017 705.961 502.284 717.875 502.284L950.689 502.323L955.404 502.324L952.071 498.99L750.938 297.779L750.938 297.778C742.498 289.339 737.757 277.892 737.757 265.956C737.757 254.021 742.498 242.574 750.938 234.134C759.378 225.695 770.824 220.953 782.76 220.953C794.695 220.953 806.142 225.695 814.582 234.134L1095.83 515.384L1095.83 515.387C1100.02 519.56 1103.35 524.519 1105.61 529.979C1107.88 535.44 1109.05 541.294 1109.05 547.206C1109.05 553.119 1107.88 558.973 1105.61 564.433C1103.35 569.894 1100.02 574.853 1095.83 579.026L1095.82 579.042L1095.8 579.059L830.16 856.621C830.155 856.626 830.151 856.631 830.146 856.636C825.975 860.817 821.021 864.135 815.568 866.399C810.107 868.667 804.253 869.834 798.341 869.834C792.428 869.834 786.574 868.667 781.114 866.399C775.654 864.132 770.695 860.809 766.521 856.621Z" fill="#36476F" stroke="#36476F" stroke-width="3.90625"/>
<path d="M689.06 232.166L689.065 232.171C693.252 236.344 696.575 241.303 698.843 246.763C701.11 252.224 702.277 258.078 702.277 263.99C702.277 269.903 701.11 275.757 698.843 281.217C696.575 286.677 693.252 291.636 689.065 295.81L689.062 295.812L487.929 496.945L484.597 500.278L489.31 500.279L610.364 500.318H610.365C622.279 500.318 633.705 505.051 642.13 513.476C650.554 521.9 655.287 533.326 655.287 545.24C655.287 557.154 650.554 568.58 642.13 577.005C633.705 585.429 622.28 590.162 610.366 590.162C610.366 590.162 610.365 590.162 610.365 590.162L489.311 590.123L484.595 590.122L487.929 593.457L689.062 794.668L689.062 794.668C697.502 803.108 702.243 814.555 702.243 826.49C702.243 838.426 697.502 849.873 689.062 858.312C680.622 866.752 669.176 871.493 657.24 871.493C645.305 871.493 633.858 866.752 625.418 858.312L344.168 577.062L344.166 577.06C339.978 572.887 336.655 567.927 334.388 562.467C332.12 557.007 330.953 551.153 330.953 545.24C330.953 539.328 332.12 533.474 334.388 528.013C336.655 522.553 339.978 517.594 344.166 513.421L344.168 513.418L625.418 232.168L625.42 232.166C629.594 227.978 634.553 224.655 640.013 222.388C645.474 220.12 651.328 218.953 657.24 218.953C663.152 218.953 669.007 220.12 674.467 222.388C679.927 224.655 684.886 227.978 689.06 232.166Z" fill="#36476F" stroke="#36476F" stroke-width="3.90625"/>
</svg>
